<svg xmlns="http://www.w3.org/2000/svg" width="22" height="20"><path fill="#000" fill-rule="evenodd" d="M20 3.333C20.533 2.667 21.067 2 21.2 1.2c.133-.133-.133-.4-.267-.267-.8.533-1.467.8-2.267 1.067H18.4c-.133 0-.267-.133-.4-.133-.8-.8-1.867-1.2-3.067-1.2-.533 0-.933 0-1.467.133C12 1.333 10.8 2.667 10.4 4.133c-.133.667-.133 1.2-.133 1.867v.133h-.133c-3.333-.267-6.4-2-8.533-4.667 0-.133-.267 0-.4.133C.8 2.267.667 3.067.667 4c0 1.333.4 2.533 1.333 3.333-.4 0-.667-.133-1.067-.4-.133 0-.4 0-.4.267 0 1.867 1.2 3.6 2.8 4.4H3.2c-.267 0-.533 0-.8-.133-.133 0-.267.267-.267.4.533 1.733 2 2.933 3.733 3.2-1.467 1.067-3.067 1.6-4.8 1.6H.533c-.267 0-.4.133-.4.267s0 .267.133.4c2 1.2 4.267 1.733 6.533 1.733 2 0 3.867-.4 5.467-1.2 1.6-.667 2.933-1.733 4.133-3.067 1.067-1.2 1.867-2.667 2.4-4.267.533-1.467.8-3.067.8-4.667h0c0-.267.133-.533.4-.667.667-.533 1.333-1.333 1.867-2.133.133-.133-.133-.4-.4-.267-.4.133-.933.4-1.467.533z" /></svg>
