<svg xmlns="http://www.w3.org/2000/svg" width="25" height="20">
	<path fill="#000" d="M10.056 13.437V6.48l6.64 3.478-6.64 3.478zM24.68 5.295s-.237-1.74-.95-2.45c-.95-1.028-1.976-1.028-2.45-1.107L12.586 1.5l-8.617.237c-.474.08-1.58.08-2.45 1.107C.727 3.555.5 5.295.5 5.295S.253 7.27.253 9.247v1.897c0 1.976.237 3.953.237 3.953s.237 1.74 1.028 2.53c.87.95 2.134.95 2.688 1.028 1.976.158 8.38.237 8.38.237l8.696-.237c.474-.08 1.502-.08 2.45-1.028.71-.79.95-2.53.95-2.53s.316-1.976.316-3.953V9.247c0-1.976-.316-3.953-.316-3.953h0z" />
</svg>
